<svg width="22" height="18" viewBox="0 0 22 18" fill="none" xmlns="http://www.w3.org/2000/svg">
<path d="M1.22222 12.8571H20.7778C21.45 12.8571 22 12.2786 22 11.5714C22 10.8643 21.45 10.2857 20.7778 10.2857H1.22222C0.55 10.2857 0 10.8643 0 11.5714C0 12.2786 0.55 12.8571 1.22222 12.8571ZM1.22222 18H20.7778C21.45 18 22 17.4214 22 16.7143C22 16.0071 21.45 15.4286 20.7778 15.4286H1.22222C0.55 15.4286 0 16.0071 0 16.7143C0 17.4214 0.55 18 1.22222 18ZM1.22222 7.71429H20.7778C21.45 7.71429 22 7.13571 22 6.42857C22 5.72143 21.45 5.14286 20.7778 5.14286H1.22222C0.55 5.14286 0 5.72143 0 6.42857C0 7.13571 0.55 7.71429 1.22222 7.71429ZM0 1.28571C0 1.99286 0.55 2.57143 1.22222 2.57143H20.7778C21.45 2.57143 22 1.99286 22 1.28571C22 0.578571 21.45 0 20.7778 0H1.22222C0.55 0 0 0.578571 0 1.28571Z" fill="#F8455B"/>
</svg>
